<?xml version="1.0" encoding="UTF-8" standalone="no"?>
<svg width="186px" height="200px" viewBox="0 0 186 200" version="1.1" xmlns="http://www.w3.org/2000/svg" xmlns:xlink="http://www.w3.org/1999/xlink">
    <!-- Generator: Sketch 3.8.1 (29687) - http://www.bohemiancoding.com/sketch -->
    <title>Segmented C</title>
    <desc>Created with Sketch.</desc>
    <defs></defs>
    <g id="Logo" stroke="none" stroke-width="1" fill="none" fill-rule="evenodd">
        <g id="Artboard-1" transform="translate(-50.000000, -22.000000)">
            <g id="Segmented-C" transform="translate(50.000000, 22.000000)">
                <path d="M185.709855,149.625935 C178.757087,161.730673 169.342812,172.234414 158.092331,180.448878 L128.921477,140.099751 C134.549199,135.990025 139.248893,130.743142 142.727758,124.688279 L185.709855,149.625935 Z" id="Segment-6" fill="#C02E1D"></path>
                <path d="M158.092331,180.448878 C146.841851,188.663342 133.993375,194.413965 120.385603,197.321696 L110.068113,148.533666 C116.871999,147.082294 123.293756,144.209476 128.921477,140.099751 L158.092331,180.448878 Z" id="Segment-7" fill="#D94E1F"></path>
                <path d="M120.385603,197.321696 C106.777832,200.229426 92.7234153,200.229426 79.1156437,197.321696 L89.4331336,148.533666 C96.2370194,149.985037 103.264227,149.985037 110.068113,148.533666 L120.385603,197.321696 Z" id="Segment-8" fill="#F16C20"></path>
                <path d="M79.1156437,197.321696 C65.5078721,194.413965 52.6593963,188.663342 41.4089155,180.448878 L70.5797695,140.099751 C76.2074912,144.209476 82.6292478,147.082294 89.4331336,148.533666 L79.1156437,197.321696 Z" id="Segment-9" fill="#EF8B2C"></path>
                <path d="M41.4089155,180.448878 C30.1584348,172.234414 20.7441595,161.730673 13.7913922,149.625935 L56.7734892,124.688279 C60.2523542,130.743142 64.9520477,135.990025 70.5797695,140.099751 L41.4089155,180.448878 Z" id="Segment-10" fill="#ECAA38"></path>
                <path d="M13.7913922,149.625935 C6.83862483,137.521197 2.49624694,124.0798 1.04217069,110.179551 L50.3963971,104.962594 C51.1209538,111.915212 53.2946241,118.633416 56.7734892,124.688279 L13.7913922,149.625935 Z" id="Segment-11" fill="#EBC844"></path>
                <path d="M1.04217069,110.179551 C-0.411905559,96.2793017 1.05705885,82.2244389 5.35477227,68.9276808 L52.5502165,84.3391521 C50.4013598,90.9875312 49.6718403,98.0099751 50.3963971,104.962594 L1.04217069,110.179551 Z" id="Segment-12" fill="#A2B86C"></path>
                <path d="M5.35477227,68.9276808 C9.6524857,55.6309227 16.6846565,43.3915212 25.989752,33.0024938 L62.8726691,66.3790524 C58.21764,71.5710723 54.6990732,77.6907731 52.5502165,84.3391521 L5.35477227,68.9276808 Z" id="Segment-13" fill="#5CA793"></path>
                <path d="M25.989752,33.0024938 C35.2948475,22.6134663 46.6743589,14.3092269 59.3789159,8.6234414 L79.567251,54.1895262 C73.2149725,57.032419 67.5276982,61.1870324 62.8726691,66.3790524 L25.989752,33.0024938 Z" id="Segment-14" fill="#1395BA"></path>
                <path d="M59.3789159,8.6234414 C72.0834729,2.93765586 85.8401261,0 99.7506234,0 L99.7506234,49.8753117 C92.7978561,49.8753117 85.9195295,51.3466334 79.567251,54.1895262 L59.3789159,8.6234414 Z" id="Segment-15" fill="#2E9CFD"></path>
                <path d="M99.7506234,0 C113.661121,0 127.417774,2.93765586 140.122331,8.6234414 L119.933996,54.1895262 C113.581717,51.3466334 106.703391,49.8753117 99.7506234,49.8753117 L99.7506234,0 Z" id="Segment-1" fill="#554CF7"></path>
                <path d="M140.122331,8.6234414 C152.826888,14.3092269 164.206399,22.6134663 173.511495,33.0024938 L136.628578,66.3790524 C131.973549,61.1870324 126.286274,57.032419 119.933996,54.1895262 L140.122331,8.6234414 Z" id="Segment-2" fill="#8C35FE"></path>
            </g>
        </g>
    </g>
</svg>